<?xml version="1.0" encoding="UTF-8" standalone="no"?>
<svg
   xmlns:dc="http://purl.org/dc/elements/1.1/"
   xmlns:cc="http://creativecommons.org/ns#"
   xmlns:rdf="http://www.w3.org/1999/02/22-rdf-syntax-ns#"
   xmlns:svg="http://www.w3.org/2000/svg"
   xmlns="http://www.w3.org/2000/svg"
   xmlns:sodipodi="http://sodipodi.sourceforge.net/DTD/sodipodi-0.dtd"
   xmlns:inkscape="http://www.inkscape.org/namespaces/inkscape"
   sodipodi:docname="inventory.svg"
   inkscape:version="1.0 (1.0+r73)"
   id="svg1165"
   version="1.1"
   viewBox="0 0 16.933333 16.933334"
   height="64"
   width="64">
  <defs
     id="defs1159" />
  <sodipodi:namedview
     inkscape:window-maximized="1"
     inkscape:window-y="30"
     inkscape:window-x="0"
     inkscape:window-height="903"
     inkscape:window-width="1920"
     units="px"
     showgrid="false"
     inkscape:document-rotation="0"
     inkscape:current-layer="g2633"
     inkscape:document-units="mm"
     inkscape:cy="-3.1118849"
     inkscape:cx="-34.514584"
     inkscape:zoom="1.979899"
     inkscape:pageshadow="2"
     inkscape:pageopacity="0.0"
     borderopacity="1.0"
     bordercolor="#666666"
     pagecolor="#ffffff"
     id="base" />
  <metadata
     id="metadata1162">
    <rdf:RDF>
      <cc:Work
         rdf:about="">
        <dc:format>image/svg+xml</dc:format>
        <dc:type
           rdf:resource="http://purl.org/dc/dcmitype/StillImage" />
        <dc:title></dc:title>
      </cc:Work>
    </rdf:RDF>
  </metadata>
  <g
     id="layer1"
     inkscape:groupmode="layer"
     inkscape:label="Capa 1">
    <g
       style="display:inline"
       transform="matrix(0.04673639,0,0,0.04673639,-51.483759,-53.010989)"
       id="g2633">
      <g
         transform="matrix(0.58104045,0,0,0.58104045,1107.2388,1170.0917)"
         id="g827">
        <path
           sodipodi:nodetypes="cscssssssssscssscsssssssssssccsccssccccsccssccccscsssssssssccccsscsscsssssscsssscccsssscscsssssssssscssscsscssscscsssscssccscccsssssssssssssssssss"
           style="fill:#e6e6e6;fill-opacity:1;stroke-width:5.05263"
           d="m 195.64405,502.17037 c -1.90302,-1.90303 -2.07106,-9.37514 -0.3734,-16.60469 2.53465,-10.79392 1.88569,-12.01515 -3.62885,-6.82885 -3.69351,3.47369 -10.88812,6.31579 -15.988,6.31579 -7.51874,0 -8.30829,-1.80164 -4.17453,-9.52565 4.78038,-8.93222 2.8241,-9.51157 -31.40117,-9.29939 C 96.433412,466.49814 63.079401,453.72985 33.517215,425.43486 9.079032,402.04423 0,381.29865 0,348.84805 0,315.60213 13.68595,280.74243 42.702892,240.07883 c 13.921373,-19.50905 26.518427,-44.37772 30.793832,-60.79211 3.979321,-15.27765 14.080992,-41.33911 22.44815,-57.91437 8.367166,-16.57525 15.213016,-33.54082 15.213016,-37.701273 0,-4.160448 2.8498,-6.470885 6.33288,-5.134297 9.99631,3.835938 57.04151,-37.893971 55.56105,-49.283623 -0.99125,-7.626055 0.91651,-9.032058 8.84211,-6.51657 8.45301,2.682881 10.13356,0.879076 10.27416,-11.027681 l 0.1681,-14.2352218 9.7089,11.6462788 c 9.50677,11.403808 10.19719,11.480503 33.16185,3.683795 38.90783,-13.20955196 91.16775,-15.2785167 126.05621,-4.9905516 16.67368,4.9167626 39.97895,9.1491416 51.78947,9.4052866 16.90529,0.366639 21.47369,2.346821 21.47369,9.307822 0,5.426696 3.84207,8.842105 9.94668,8.842105 6.32502,0 8.98373,2.509426 7.30199,6.891977 -1.75318,4.568728 2.52384,7.925684 12.6879,9.958494 11.02403,2.204807 14.50411,5.225533 12.38431,10.749645 -1.78854,4.660861 0.64808,9.063183 6.19432,11.191473 13.50466,5.182226 27.27427,18.105317 27.27427,25.59753 0,3.610401 5.59109,9.111831 12.42462,12.225391 9.93635,4.52733 14.97464,3.99017 25.15801,-2.68222 24.20751,-15.861385 35.46169,-53.721764 15.96905,-53.721764 -4.06838,0 -8.80341,-4.431061 -10.52226,-9.846808 -6.19245,-19.5106 -39.56296,-19.140011 -45.79917,0.508614 -2.19113,6.903614 -4.97092,8.671212 -8.33934,5.302789 -14.40242,-14.40242 19.47145,-46.4353871 49.14272,-46.4720223 36.83151,-0.045479 65.25277,48.3265653 47.68335,81.1553823 -4.2623,7.964104 -3.56084,9.777741 3.78947,9.798194 7.00427,0.01971 5.63263,2.801563 -6.13803,12.449875 -9.63754,7.89978 -12.3977,12.51057 -7.57895,12.66036 4.39458,0.13663 -2.50489,9.53587 -16.42105,22.37071 -24.13779,22.26222 -31.21678,35.78825 -15.59222,29.79253 5.79304,-2.22299 7.2291,-1.31916 4.6177,2.90622 -2.08462,3.37293 -1.22284,9.22605 1.915,13.00692 3.18902,3.84254 4.25345,12.65836 2.41354,19.9892 -2.83124,11.28066 -1.62503,13.17066 8.62454,13.51377 6.55392,0.21938 9.09226,1.53965 5.64075,2.93391 -4.56358,1.84351 -4.85967,5.18037 -1.0854,12.23269 2.85453,5.33372 3.40476,9.95993 1.22279,10.28048 -2.18198,0.32054 -7.37755,0.88897 -11.54572,1.26316 -12.99598,1.16668 -20.89061,86.40073 -9.09519,98.19613 4.71577,4.71578 3.59297,6.06316 -5.05263,6.06316 -6.65255,0 -11.11579,3.13204 -11.11579,7.80043 0,4.62615 -3.59818,7.19628 -8.84211,6.31579 -6.35484,-1.06702 -9.29184,2.42391 -10.44086,12.41009 -0.87931,7.64211 -3.15961,13.89474 -5.06733,13.89474 -8.90178,0 -76.70233,71.3431 -76.70233,80.71002 0,8.83818 -1.36614,9.46981 -9.49806,4.39134 -7.45399,-4.65509 -15.9281,-4.12745 -39.37627,2.45177 -52.98579,14.86705 -86.06549,15.87103 -132.879,4.03288 -23.26228,-5.88253 -42.74206,-10.13799 -43.2884,-9.45656 -0.54633,0.68143 -4.24228,7.57423 -8.21322,15.31734 -3.97093,7.74311 -8.7769,12.52135 -10.67994,10.61832 z m 86.88226,-29.07904 c -1.1579,-1.02082 -11.2,-3.24087 -22.31579,-4.93345 -14.08571,-2.1448 -17.14812,-1.68995 -10.10526,1.50091 9.69958,4.39452 36.76217,7.25974 32.42105,3.43254 z m 125.11802,-18.1172 c 53.9703,-25.11792 95.52935,-70.66205 117.78503,-129.0794 16.49765,-43.30357 16.56313,-114.07071 0.14501,-156.63157 -14.73423,-38.19533 -32.96841,-65.01374 -63.06749,-92.758088 -26.716,-24.62595 -77.95137,-50.523888 -107.04074,-54.105873 -16.32516,-2.010235 -15.16977,-1.169855 7.16046,5.20822 75.94668,21.692275 135.29986,77.249771 158.87692,148.716611 13.10243,39.71603 12.25,107.65146 -1.82683,145.59169 -27.60319,74.39697 -85.26304,126.23893 -162.69755,146.28133 l -26.03178,6.73781 22.73684,-2.71467 c 12.50527,-1.49307 36.78732,-9.2538 53.96013,-17.24606 z M 208.92915,442.57247 c 34.26694,-12.89804 68.90667,-32.64225 88.28384,-50.32068 l 11.73932,-10.71016 21.49353,22.74856 21.49354,22.74856 6.2813,-50.57201 c 3.45472,-27.8146 8.53753,-63.88178 11.29514,-80.14927 2.75762,-16.2675 4.25025,-30.34087 3.31696,-31.27416 -0.93329,-0.93329 -38.61952,0.89389 -83.74719,4.0604 l -82.0503,5.75729 21.21986,21.62146 c 11.67092,11.89181 20.22483,22.37833 19.00867,23.30338 -54.38915,41.37044 -98.44089,63.37556 -134.45283,67.16309 -45.922219,4.82984 -72.389938,-23.18829 -72.389938,-76.63037 0,-17.47129 2.337298,-37.91354 5.193996,-45.42722 11.114943,-29.23452 -0.773773,-16.81622 -17.68614,18.47397 -30.4177,63.47108 -21.3492768,114.7742 26.067428,147.47218 28.786028,19.85049 40.756581,23.22786 83.572524,23.57908 29.50811,0.24207 46.93475,-2.65035 71.36029,-11.8441 z M 101.05263,373.89473 c 0,-2.77895 -3.058136,-5.05263 -6.795851,-5.05263 -3.737719,0 -10.911167,-4.54737 -15.940991,-10.10526 -5.029824,-5.5579 -12.771694,-10.03862 -17.20415,-9.95716 -5.55411,0.10206 -2.930248,4.81345 8.44176,15.1579 16.365463,14.88671 31.499232,19.67061 31.499232,9.95715 z m 6.59165,-22.67339 c -4.62152,-9.69142 -9.299755,-16.72377 -10.39608,-15.62744 -2.311382,2.31138 13.02668,33.2482 16.48402,33.2482 1.27314,0 -1.46643,-7.92934 -6.08794,-17.62076 z M 73.120925,319.14905 c -1.318272,-3.71011 -3.843871,-19.05748 -5.612438,-34.10526 -1.768573,-15.04777 -4.892014,-27.35958 -6.940982,-27.35958 -5.387338,0 -10.04119,27.33247 -10.04119,58.97272 v 27.39378 l 12.495733,-9.07799 c 6.872655,-4.9929 11.417149,-12.11354 10.098877,-15.82367 z m 11.06744,-37.46484 C 82.7867,278.21052 81.639889,281.05263 81.639889,288 c 0,6.94736 1.146811,9.78947 2.548476,6.31578 1.401661,-3.47368 1.401661,-9.15789 0,-12.63157 z m 0,-80.84211 c -1.401665,-3.47368 -2.548476,-0.63158 -2.548476,6.31579 0,6.94737 1.146811,9.78948 2.548476,6.31579 1.401661,-3.47368 1.401661,-9.15789 0,-12.63158 z m 5.157893,-19.89473 c -1.612931,-4.03066 -2.810188,-2.8334 -3.052633,3.05263 -0.219385,5.32631 0.974794,8.31052 2.653743,6.63158 1.678944,-1.67895 1.858449,-6.03685 0.398905,-9.68421 z m 18.772492,-38.21053 c 4.59321,-9.03158 7.21443,-16.42105 5.82496,-16.42105 -2.91022,0 -17.943712,28.01088 -17.943712,33.4333 0,5.27559 2.739885,1.42935 12.118752,-17.01225 z m 67.81721,-78.95099 c 11.14157,-7.721118 33.52442,-19.493394 49.73967,-26.160617 16.21524,-6.667222 26.07173,-12.174396 21.90331,-12.238163 -13.55758,-0.2074 -67.67871,28.526878 -89.52107,47.528996 -11.72081,10.196706 -26.21179,25.814602 -32.20218,34.706434 -6.94167,10.30386 -3.50887,7.8321 9.46562,-6.81565 11.19649,-12.640436 29.47308,-29.299887 40.61465,-37.021 z m 98.1693,-41.868953 c -3.47369,-1.401662 -9.1579,-1.401662 -12.63158,0 -3.47369,1.401662 -0.63158,2.548477 6.31579,2.548477 6.94737,0 9.78947,-1.146815 6.31579,-2.548477 z m 42.94736,-5.189279 c -4.86315,-1.270876 -12.82105,-1.270876 -17.68421,0 -4.86315,1.270876 -0.88421,2.310684 8.84211,2.310684 9.72631,0 13.70526,-1.039808 8.8421,-2.310684 z"
           id="path823"
           inkscape:connector-curvature="0" />
        <path
           sodipodi:nodetypes="sssscssssssscsssssssscscsssscccssscsscscsssscccscccsssssssscscssssscsssssscsscssscsssssscsssssssssssccssscsss"
           style="fill:#000000;fill-opacity:1;stroke-width:5.05263"
           d="m 198.48734,486.31578 c 1.02727,-9.03158 -0.0121,-16.42105 -2.30979,-16.42105 -2.29766,0 -4.17755,2.0085 -4.17755,4.46334 0,2.45483 -4.54737,5.6525 -10.10527,7.10592 -10.45254,2.7334 -13.95743,-3.53948 -5.05263,-9.04294 12.17403,-7.52397 2.1699,-10.10527 -39.16414,-10.10527 -39.488071,0 -47.071515,-1.58832 -71.078477,-14.88709 C -14.296903,402.61576 -20.522011,325.39765 49.3273,233.17934 60.588191,218.31219 71.351256,197.84903 73.245224,187.70565 75.139193,177.56228 84.444352,152.45874 93.923346,131.92 103.40235,111.38127 111.15789,91.733026 111.15789,88.257225 c 0,-3.475796 5.11579,-7.656667 11.36842,-9.290819 15.47451,-4.044334 60.18744,-43.237756 56.3712,-49.412558 -1.69074,-2.735666 1.12997,-4.247369 6.27965,-3.365461 7.60575,1.30252 9.05181,-1.156609 7.75466,-13.187299 -1.39284,-12.91817624 -0.59412,-13.95815049 6.31579,-8.2234367 4.35066,3.6107215 7.91028,9.4311297 7.91028,12.9342407 0,4.902558 4.94501,4.577515 21.47368,-1.411499 11.81053,-4.279436 43.1462,-8.8053887 69.63482,-10.0576723 39.34722,-1.8601902 54.52076,-0.3125962 82.91144,8.4563943 19.11266,5.903301 39.21962,9.314766 44.68213,7.581034 6.85434,-2.175485 8.79543,-1.313521 6.2644,2.781783 -2.22876,3.606193 0.3129,6.9749 6.47907,8.587392 5.58057,1.459353 11.28069,6.990526 12.66692,12.291496 1.46726,5.610795 6.94062,9.638126 13.09872,9.638126 7.36754,0 10.57829,3.210746 10.57829,10.578291 0,6.329002 4.05927,11.639808 10.10526,13.220872 5.55789,1.45342 10.10526,5.030036 10.10526,7.948027 0,2.917991 1.50763,3.797815 3.35028,1.955161 1.84266,-1.842654 7.49343,3.462609 12.55733,11.789473 14.34123,23.58227 42.46974,18.66263 57.30325,-10.02227 10.37129,-20.055839 9.58586,-30.851837 -2.47402,-34.005559 -5.55789,-1.453419 -10.10526,-5.735514 -10.10526,-9.515759 0,-3.780245 -5.53172,-10.49771 -12.29275,-14.9277 -13.66332,-8.952552 -28.51437,-4.374104 -37.86351,11.673006 -4.58022,7.861549 -5.13147,7.628517 -5.26904,-2.227376 -0.20423,-14.632147 11.2793,-25.365558 34.62013,-32.3586323 15.79811,-4.7332375 21.94479,-4.3040417 34.99291,2.4434153 21.49036,11.113083 27.42058,24.317214 25.40943,56.576172 -0.93635,15.01924 0.42796,27.304608 3.03234,27.300818 2.60412,-0.0038 -1.94325,7.165815 -10.10527,15.932455 -8.16202,8.76664 -11.99792,14.31666 -8.52424,12.33339 13.39725,-7.64907 5.39373,4.38923 -13.89474,20.89945 -18.62622,15.94336 -26.44592,31.66992 -15.74718,31.66992 5.76116,0 11.95907,19.49779 10.84128,34.10527 -0.49667,6.49204 1.99427,11.36995 5.80744,11.37198 3.67261,0.002 7.00533,5.68618 7.40605,12.63158 0.51128,8.85998 -1.86629,12.62801 -7.9679,12.62801 -6.97339,0 -9.90063,7.86564 -14.77349,39.69727 -4.12815,26.96667 -4.47809,43.90265 -1.09121,52.81078 4.06817,10.7002 3.63092,12.59362 -2.37621,10.28847 -4.94526,-1.89766 -7.36193,0.51439 -7.36193,7.34778 0,7.68525 -2.47104,9.52662 -10.10527,7.53022 -8.50893,-2.22514 -10.10526,-0.15501 -10.10526,13.10461 0,8.66095 -1.70526,15.2234 -3.78947,14.58321 -7.82264,-2.40281 -77.05263,70.78774 -77.05263,81.46071 0,9.30536 -1.28707,9.93247 -9.65705,4.70534 -7.64703,-4.77565 -16.99947,-4.25873 -44.93346,2.4835 -47.18017,11.38755 -107.08535,10.80338 -142.40814,-1.38871 -15.25452,-5.26528 -28.0282,-9.17001 -28.38595,-8.67716 -0.35776,0.49284 -4.45843,7.71714 -9.11261,16.05398 l -8.46215,15.15789 z M 369.57211,470.75137 C 560.77641,417.73201 602.79293,161.46537 437.76912,54.805318 362.51141,6.1639108 265.86114,2.9537291 191.37934,46.621627 99.347245,100.57907 54.460516,220.04696 88.523422,320.37691 c 9.168657,27.00565 27.725568,60.21619 31.524208,56.41756 1.4214,-1.4214 -0.78296,-7.77112 -4.89859,-14.11048 C 84.111823,314.87692 75.711444,229.80681 96.514911,173.9774 122.06919,105.39843 167.41833,60.359949 235.98979,35.457964 c 26.60862,-9.663018 38.85319,-11.082174 80.8421,-9.369666 42.49987,1.733347 54.27839,4.267073 83.45439,17.952213 187.43884,87.919049 167.50641,358.460099 -30.84537,418.662189 -42.42666,12.87699 -108.1017,8.41476 -153.44092,-10.42542 -4.86961,-2.0235 -8.8421,-1.4721 -8.8421,1.22732 0,2.69586 13.07368,8.8196 29.05263,13.60833 15.97895,4.78873 31.32632,9.46785 34.10526,10.39803 15.08105,5.04802 70.21527,1.29325 99.25633,-6.75959 z M 184.42105,452.91105 c 29.03406,-7.76728 71.03234,-28.17657 102.80054,-49.95648 l 21.95843,-15.05444 22.2521,21.83877 c 12.23864,12.01132 22.25208,20.53477 22.25208,18.94098 0,-1.59378 4.54737,-36.47868 10.10527,-77.52199 5.55789,-41.04331 10.10526,-77.94729 10.10526,-82.00884 0,-6.21732 -8.58595,-6.8812 -54.31579,-4.19977 -29.87368,1.75168 -67.44639,4.47401 -83.4949,6.04963 l -29.1791,2.86475 17.81068,19.7143 c 9.79588,10.84287 17.81069,21.77597 17.81069,24.29578 0,8.70798 -70.40965,50.93061 -102.49572,61.46373 -27.23197,8.93962 -35.40898,9.70515 -53.018026,4.96352 C 42.508049,372.31717 29.417115,318.49144 53.143285,245.04135 56.3996,234.96065 56.392652,234.96066 47.864243,245.05263 34.645889,260.69437 11.17284,312.20161 7.5849765,333.43799 0.99541746,372.44126 21.502155,412.3513 60.917344,437.23302 96.637059,459.78189 138.75315,465.12826 184.42105,452.91105 Z M 99.091536,372.33444 c -5.247026,-3.31026 -15.305891,-11.19348 -22.353033,-17.51826 -9.252379,-8.30397 -14.32372,-9.96139 -18.249428,-5.96431 -7.850284,7.99303 19.340599,30.17355 36.52952,29.79836 12.530885,-0.2735 12.854645,-0.77556 4.072941,-6.31579 z M 68.414954,333.24779 c 8.295643,-9.16659 8.668694,-12.87685 3.309408,-32.91462 -3.322085,-12.4209 -6.109293,-32.21399 -6.193798,-43.98463 -0.195133,-27.18405 -6.621439,-17.13868 -14.922104,23.32577 -5.955158,29.0305 -3.545065,63.90463 4.416339,63.90463 2.222324,0 8.247895,-4.64902 13.390155,-10.33115 z"
           id="path821"
           inkscape:connector-curvature="0" />
      </g>
    </g>
  </g>
</svg>
